<svg width="19" height="19" viewBox="0 0 19 19" fill="none" xmlns="http://www.w3.org/2000/svg">
<path d="M1.58331 6.63198C1.58331 6.35464 1.58331 6.21597 1.59489 6.09918C1.7065 4.97268 2.59765 4.08153 3.72415 3.96992C3.84094 3.95834 3.9871 3.95834 4.2794 3.95834C4.39203 3.95834 4.44835 3.95834 4.49616 3.95545C5.10671 3.91847 5.64136 3.53312 5.86951 2.96559C5.88738 2.92115 5.90408 2.87105 5.93748 2.77084C5.97088 2.67064 5.98758 2.62054 6.00545 2.57609C6.2336 2.00857 6.76825 1.62322 7.3788 1.58624C7.42661 1.58334 7.47942 1.58334 7.58505 1.58334H11.4149C11.5205 1.58334 11.5733 1.58334 11.6212 1.58624C12.2317 1.62322 12.7664 2.00857 12.9945 2.57609C13.0124 2.62054 13.0291 2.67064 13.0625 2.77084C13.0959 2.87105 13.1126 2.92115 13.1304 2.96559C13.3586 3.53312 13.8932 3.91847 14.5038 3.95545C14.5516 3.95834 14.6079 3.95834 14.7206 3.95834C15.0129 3.95834 15.159 3.95834 15.2758 3.96992C16.4023 4.08153 17.2935 4.97268 17.4051 6.09918C17.4166 6.21597 17.4166 6.35464 17.4166 6.63198V12.825C17.4166 14.1551 17.4166 14.8202 17.1578 15.3282C16.9301 15.7751 16.5668 16.1385 16.1199 16.3662C15.6118 16.625 14.9468 16.625 13.6166 16.625H5.38331C4.05319 16.625 3.38813 16.625 2.88009 16.3662C2.4332 16.1385 2.06987 15.7751 1.84217 15.3282C1.58331 14.8202 1.58331 14.1551 1.58331 12.825V6.63198Z" stroke="#161616" stroke-width="2" stroke-linecap="round" stroke-linejoin="round"/>
<path d="M9.49998 13.0625C11.2489 13.0625 12.6666 11.6447 12.6666 9.89584C12.6666 8.14694 11.2489 6.72918 9.49998 6.72918C7.75108 6.72918 6.33331 8.14694 6.33331 9.89584C6.33331 11.6447 7.75108 13.0625 9.49998 13.0625Z" stroke="#161616" stroke-width="2" stroke-linecap="round" stroke-linejoin="round"/>
</svg>
