<svg width="17" height="13" viewBox="0 0 17 13" fill="none" xmlns="http://www.w3.org/2000/svg">
<path d="M15.4062 0H1.59375C0.713535 0 0 0.727526 0 1.625V11.375C0 12.2725 0.713535 13 1.59375 13H15.4062C16.2865 13 17 12.2725 17 11.375V1.625C17 0.727526 16.2865 0 15.4062 0ZM15.4062 1.625V3.00642C14.6618 3.62456 13.4749 4.58575 10.9375 6.61155C10.3784 7.06002 9.27071 8.13742 8.5 8.12486C7.72942 8.13756 6.6214 7.05985 6.06246 6.61155C3.52551 4.58606 2.33833 3.62466 1.59375 3.00642V1.625H15.4062ZM1.59375 11.375V5.0916C2.35457 5.70947 3.4335 6.57651 5.07802 7.88951C5.80374 8.47197 7.07466 9.75779 8.5 9.74997C9.91834 9.75779 11.1732 8.49063 11.9217 7.88978C13.5662 6.57682 14.6454 5.70954 15.4062 5.09163V11.375H1.59375Z" fill="white"/>
</svg>
